<?xml version="1.0" encoding="utf-8"?>
<!-- Generator: $$$/GeneralStr/196=Adobe Illustrator 27.6.0, SVG Export Plug-In . SVG Version: 6.00 Build 0)  -->
<svg version="1.1" id="Calque_1" xmlns="http://www.w3.org/2000/svg" xmlns:xlink="http://www.w3.org/1999/xlink" x="0px" y="0px"
	 viewBox="0 0 188 28" style="enable-background:new 0 0 188 28;" xml:space="preserve">
<style type="text/css">
	.st0{fill:#FFFFFF;}
</style>
<path class="st0" d="M23.9,27.4v-0.3c1,0,2-0.2,2.9-0.4c0.4-0.1,0.7-0.4,0.9-0.7c0.2-0.3,0.3-0.7,0.3-1.1V3.3c0.1-0.4,0-0.8-0.3-1.2
	c-0.2-0.4-0.6-0.6-1-0.8c-0.9-0.3-1.9-0.5-2.9-0.5V0.6H46v6.5h-0.4c-0.5-1.8-3-5.7-4.8-5.9C39.5,1.1,38.3,1,37.1,1h-3.8v12.3h3.3
	c2.2,0,2.9-0.7,3.4-1.2c0.7-0.7,1.5-2.9,1.6-4h0.4v11.1h-0.4c-0.3-1.5-0.8-2.9-1.6-4.2c-0.5-0.6-1.2-1.2-3.4-1.2h-3.3v9.8
	c0,3.1,0.7,3.5,4.4,3.5c2.5,0,5.1,0,6-0.9c1.4-1.4,3.4-5.2,4-6.5H48l-0.5,7.9H23.9z"/>
<path class="st0" d="M81.4,7.6h-0.4c-0.5-1.7-2.8-6.2-4.5-6.4c-1-0.1-2-0.2-3-0.2h-1.7v23.6c0,0.4,0.1,0.8,0.3,1.2
	c0.2,0.4,0.5,0.6,0.9,0.8c1,0.3,2.1,0.4,3.2,0.5v0.3h-14v-0.3c1.1-0.1,2.1-0.2,3.2-0.4c0.4-0.1,0.7-0.4,1-0.8
	c0.2-0.4,0.3-0.8,0.3-1.2V1.1H65c-1,0-2,0-3,0.2c-1.7,0.2-4.1,4.7-4.6,6.4h-0.4v-7h24.4V7.6z"/>
<path class="st0" d="M82.2,27.4v-0.3c1,0,2-0.2,2.9-0.4c0.4-0.1,0.7-0.4,1-0.7c0.2-0.3,0.3-0.7,0.3-1.2V3.3c0.1-0.4,0-0.8-0.3-1.2
	c-0.2-0.4-0.6-0.6-1-0.8c-1-0.3-1.9-0.5-2.9-0.5V0.6h22.1v6.5h-0.4c-0.5-1.8-3-5.7-4.8-5.9C97.9,1.1,96.7,1,95.4,1h-3.8v12.3h3.3
	c2.2,0,2.9-0.7,3.4-1.2c0.7-0.7,1.5-2.9,1.6-4h0.4v11.1h-0.4c-0.2-1.5-0.8-2.9-1.6-4.2c-0.5-0.6-1.3-1.2-3.4-1.2h-3.3v9.8
	c0,3.1,0.7,3.5,4.4,3.5c2.5,0,5.1,0,6-0.9c1.4-1.4,3.4-5.2,4-6.5h0.4l-0.5,7.9H82.2z"/>
<path class="st0" d="M142,27.4h-13.8v-0.3c1.1,0,2.2-0.2,3.2-0.5c0.4-0.2,0.7-0.4,1-0.8c0.2-0.4,0.3-0.8,0.3-1.2V2.8L122.9,27h-0.7
	c-0.4-1.2-1.4-4-2-5.5l-7.9-18.2v17.8c0,3,0.4,4.4,1.3,5.2c0.7,0.5,3.2,0.7,3.9,0.8v0.3h-10.7v-0.3c0.7-0.1,2.7-0.1,3.6-0.8
	c0.9-0.7,1.2-2.2,1.2-5.2V5.1c0-1.6-0.4-2.7-1.2-3.3c-1-0.6-2.3-1-3.5-0.9V0.6h9.5l8.6,19.3l6.5-16c0.4-1.1,0.7-2.2,0.9-3.3h9.5v0.3
	c-1,0.1-1.9,0.2-2.9,0.5c-0.4,0.1-0.7,0.4-1,0.7c-0.2,0.4-0.3,0.8-0.2,1.2v21.4c0,0.4,0.1,0.8,0.3,1.2s0.5,0.6,0.9,0.8
	c0.9,0.3,1.9,0.5,2.9,0.5V27.4z"/>
<path class="st0" d="M155.8,15.4h-2.5v9.4c0,0.4,0,0.8,0.3,1.2c0.2,0.4,0.6,0.6,0.9,0.8c1,0.3,2,0.4,3,0.4v0.3h-13.5v-0.3
	c1-0.1,1.9-0.2,2.9-0.4c0.4-0.1,0.7-0.4,0.9-0.8c0.2-0.3,0.3-0.8,0.3-1.2V3.3c0.1-0.4,0-0.8-0.3-1.2c-0.2-0.4-0.6-0.6-1-0.8
	c-1-0.3-2-0.5-3-0.5V0.6h13.6c5.5,0,9.1,2.2,9.1,6.5C166.6,12.7,161.3,15.4,155.8,15.4L155.8,15.4z M155.4,1.1h-2v13.7h1.4
	c5,0,6.1-4.1,6.1-6.8C160.8,4.6,159.6,1.1,155.4,1.1z"/>
<path class="st0" d="M178.5,28c-2.8,0.1-5.5-0.7-7.9-2.1l-1.3,1.9H169l-0.2-9.5h0.3c1.9,5,4.7,9.2,9.3,9.2c3.7,0,5.3-2.6,5.3-5.5
	c0-2.4-1.6-4.1-4.2-5.1c-2-0.8-3.6-1.3-5.3-2.1c-1.5-0.6-2.7-1.6-3.5-2.9c-0.8-1.3-1.3-2.8-1.2-4.4c0-4.2,3.4-7.6,8.5-7.6
	c2.5-0.1,4.9,0.6,7,2l1.2-1.8h0.4l0.2,9.1h-0.4c-1.5-4.6-3.8-8.8-8.3-8.8c-0.6,0-1.2,0.1-1.7,0.3c-0.5,0.2-1,0.5-1.5,1
	c-0.4,0.4-0.8,0.9-1,1.5c-0.2,0.5-0.4,1.1-0.4,1.7v0.2c0,2.4,1.3,3.9,4,5.1c1.8,0.8,3.7,1.3,5.2,2c3.2,1.4,5.3,3.2,5.3,7.4
	C188,24.5,184.1,28,178.5,28"/>
<path class="st0" d="M23.5,19.4l-0.5,8H0v-0.3c1,0,1.9-0.2,2.9-0.4c0.4-0.1,0.7-0.4,0.9-0.7c0.2-0.3,0.3-0.8,0.3-1.2V3.3
	c0-0.4,0-0.8-0.3-1.2C3.6,1.8,3.3,1.5,2.9,1.4C2,1.1,1,0.9,0,0.9V0.6h13.3v0.3c-0.9,0-1.9,0.1-2.8,0.3c-0.4,0.1-0.7,0.4-1,0.8
	C9.3,2.3,9.2,2.7,9.3,3.1v20.3c0,3.1,0.7,3.5,4.4,3.5c2.4,0,4.5-0.1,5.4-1c1.6-2,3-4.2,4.1-6.6H23.5"/>
</svg>
