<svg width="188" height="28" viewBox="0 0 188 28" fill="none" xmlns="http://www.w3.org/2000/svg">
<path d="M23.9041 27.4474V27.1751C24.8926 27.1355 25.8742 26.9906 26.8321 26.7426C27.2215 26.6294 27.5578 26.381 27.7807 26.0419C28.0036 25.7028 28.0984 25.2952 28.0481 24.8925V3.33982C28.1038 2.92236 28.013 2.49849 27.7912 2.1406C27.5694 1.78272 27.2304 1.51302 26.8321 1.37758C25.8825 1.07969 24.8982 0.90737 23.9041 0.864989V0.592678H45.9841V7.12014H45.6C45.0961 5.35012 42.5921 1.45767 40.7521 1.21739C39.5323 1.08905 38.3066 1.02489 37.0801 1.02517H33.2481V13.2952H36.5281C38.7121 13.2952 39.4161 12.5824 39.8881 12.0698C40.5921 11.405 41.3681 9.12243 41.4881 8.06522H41.8721V19.1179H41.4881C41.2333 17.6302 40.6721 16.2118 39.8401 14.9531C39.3361 14.3604 38.5921 13.7277 36.4801 13.7277H33.2001V23.5149C33.2001 26.5824 33.8641 26.9748 37.6161 26.9748C40.0801 26.9748 42.6961 26.9748 43.6401 26.0778C45.0081 24.6522 47.08 20.8799 47.64 19.5904H47.9921L47.48 27.4474H23.9041Z" fill="#930025"/>
<path d="M81.44 7.63272H81.088C80.624 5.89474 78.24 1.45767 76.56 1.2254C75.5591 1.10796 74.5517 1.05446 73.544 1.06522H71.824V24.7002C71.7922 25.1142 71.8929 25.5276 72.1116 25.8804C72.3302 26.2332 72.6554 26.5071 73.04 26.6625C74.0896 26.9272 75.1604 27.0988 76.24 27.1751V27.4474H62.256V27.1751C63.333 27.1215 64.4035 26.9768 65.456 26.7426C65.8507 26.5993 66.1856 26.3267 66.4063 25.9691C66.627 25.6116 66.7206 25.1898 66.672 24.7723V1.06522H64.992C63.9871 1.05825 62.9826 1.11174 61.984 1.2254C60.304 1.45767 57.88 5.90275 57.408 7.63272H57.056V0.592678H81.44V7.63272Z" fill="#930025"/>
<path d="M82.24 27.4474V27.1751C83.2312 27.1355 84.2154 26.9905 85.176 26.7426C85.5669 26.631 85.9051 26.3832 86.1295 26.044C86.354 25.7047 86.4499 25.2963 86.4 24.8925V3.33982C86.4562 2.92337 86.3665 2.50029 86.1463 2.14255C85.9261 1.7848 85.5888 1.51449 85.192 1.37758C84.2399 1.079 83.2528 0.906674 82.256 0.864989V0.592678H104.336V7.12014H103.944C103.44 5.35012 100.936 1.45767 99.096 1.21739C97.8763 1.08638 96.6506 1.01954 95.424 1.01716H91.6V13.2952H94.88C97.072 13.2952 97.768 12.5824 98.24 12.0698C98.944 11.405 99.72 9.12243 99.84 8.06522H100.232V19.1179H99.84C99.5968 17.6347 99.0522 16.2172 98.24 14.9531C97.728 14.3604 96.984 13.7277 94.88 13.7277H91.6V23.5149C91.6 26.5824 92.264 26.9748 96.016 26.9748C98.472 26.9748 101.096 26.9748 102.024 26.0778C103.4 24.6522 105.472 20.8799 106.024 19.5904H106.4L105.888 27.4474H82.24Z" fill="#930025"/>
<path d="M142.024 27.4474H128.264V27.1751C129.361 27.142 130.451 26.9834 131.512 26.7025C131.908 26.5421 132.245 26.2626 132.475 25.9025C132.706 25.5425 132.82 25.1196 132.8 24.6922V2.7952L122.912 27.0149H122.208C121.816 25.7975 120.84 23.0103 120.216 21.5526L112.32 3.38787V21.2002C112.32 24.2277 112.752 25.6453 113.616 26.3902C114.272 26.9348 116.816 27.135 117.56 27.1911V27.4634H106.856V27.1911C107.512 27.111 109.512 27.111 110.448 26.4382C111.384 25.7654 111.696 24.2357 111.696 21.2483V5.10984C111.696 3.50801 111.304 2.39474 110.528 1.77002C109.483 1.13084 108.272 0.815915 107.048 0.864989V0.592678H116.544L125.104 19.9348L131.632 3.91648C132.062 2.85109 132.35 1.7335 132.488 0.592678H141.984V0.864989C141.019 0.929905 140.062 1.08816 139.128 1.33753C138.73 1.46267 138.39 1.7258 138.168 2.07961C137.947 2.43342 137.859 2.85471 137.92 3.26774V24.7002C137.894 25.1071 137.996 25.5119 138.213 25.857C138.43 26.2021 138.75 26.47 139.128 26.6224C140.066 26.9275 141.039 27.1105 142.024 27.167V27.4474Z" fill="#930025"/>
<path d="M155.832 15.3776H153.368V24.7723C153.319 25.1898 153.413 25.6116 153.634 25.9691C153.854 26.3267 154.189 26.5993 154.584 26.7426C155.554 26.9989 156.549 27.144 157.552 27.1751V27.4554H144.072V27.1751C145.046 27.1197 146.013 26.975 146.96 26.7426C147.349 26.6058 147.679 26.3414 147.899 25.9923C148.118 25.6433 148.213 25.2303 148.168 24.8204V3.33982C148.226 2.92317 148.137 2.4994 147.916 2.14131C147.696 1.78322 147.358 1.51317 146.96 1.37758C145.998 1.08794 145.004 0.915835 144 0.864989V0.592678H157.56C163.072 0.592678 166.624 2.83524 166.624 7.12014C166.624 12.7265 161.312 15.3776 155.84 15.3776H155.832ZM155.4 1.10526H153.368V14.8249H154.736C159.736 14.8249 160.8 10.7002 160.8 8.06522C160.8 4.6373 159.576 1.10526 155.4 1.10526Z" fill="#930025"/>
<path d="M178.544 28.032C175.774 28.1136 173.041 27.3753 170.688 25.9096L169.392 27.8318H169L168.8 18.2849H169.144C171.064 23.3227 173.88 27.4874 178.408 27.4874C182.12 27.4874 183.688 24.8524 183.688 22.0252C183.688 19.6625 182.088 17.8924 179.512 16.9153C177.52 16.1144 175.96 15.6098 174.2 14.865C172.748 14.3084 171.51 13.3038 170.666 11.9965C169.822 10.6891 169.415 9.14685 169.504 7.59268C169.504 3.37986 172.944 -1.53552e-06 178.024 -1.53552e-06C180.499 -0.059667 182.935 0.62677 185.016 1.97025L186.208 0.200227H186.6L186.76 9.32265H186.4C184.92 4.71739 182.568 0.512584 178.08 0.512584C177.489 0.507304 176.903 0.618772 176.355 0.840609C175.807 1.06245 175.308 1.3903 174.886 1.8054C174.465 2.2205 174.13 2.71471 173.899 3.25974C173.669 3.80476 173.548 4.38991 173.544 4.98169V5.18993C173.544 7.55263 174.832 9.08238 177.544 10.2998C179.304 11.1007 181.216 11.6373 182.744 12.3101C185.944 13.7597 188.024 15.5137 188.024 19.7025C188.024 24.508 184.072 28 178.568 28" fill="#930025"/>
<path d="M23.488 19.4302L22.976 27.4394H0V27.167C0.977997 27.1269 1.94888 26.9819 2.896 26.7346C3.28164 26.5984 3.61039 26.3364 3.82946 25.9907C4.04853 25.645 4.14522 25.2357 4.104 24.8284V3.33982C4.15121 2.92456 4.05782 2.50545 3.83878 2.14966C3.61975 1.79386 3.28775 1.52198 2.896 1.37758C1.95855 1.07522 0.984174 0.902753 0 0.864989L0 0.592678H13.328V0.864989C12.3811 0.872561 11.4375 0.977226 10.512 1.17735C10.1119 1.31184 9.77164 1.58284 9.55083 1.94299C9.33002 2.30313 9.24265 2.72951 9.304 3.1476V23.4828C9.304 26.6224 10 26.9828 13.712 26.9828C16.112 26.9828 18.248 26.9027 19.104 26.0298C20.7247 23.9995 22.0996 21.7842 23.2 19.4302H23.512" fill="#930025"/>
</svg>
